<svg width="100" height="100" xmlns="http://www.w3.org/2000/svg" viewBox="0 0 24 24" fill="#28a745">
  <path d="M20 6h-2.18c.11-.31.18-.65.18-1a2.996 2.996 0 0 0-5.5-1.65l-.5.67-.5-.68C10.96 2.54 10.05 2 9 2 7.34 2 6 3.34 6 5c0 .35.07.69.18 1H4c-1.11 0-2 .89-2 2v1c0 1.11.89 2 2 2v8c0 1.11.89 2 2 2h12c1.11 0 2-.89 2-2v-8c1.11 0 2-.89 2-2V8c0-1.11-.89-2-2-2zM9 4c.55 0 1 .45 1 1s-.45 1-1 1-1-.45-1-1 .45-1 1-1zm6 0c.55 0 1 .45 1 1s-.45 1-1 1-1-.45-1-1 .45-1 1-1zM4 8h16v1H4V8zm2 3h5v8H6v-8zm7 8v-8h5v8h-5z"/>
</svg>